<svg xmlns="http://www.w3.org/2000/svg" width="62" height="57" fill="none" xmlns:v="https://vecta.io/nano"><g clip-path="url(#B)"><mask id="A" maskUnits="userSpaceOnUse" x="-1" y="3" width="64" height="48" mask-type="alpha"><path fill="#c4c4c4" d="M-1 3.5h64v47H-1z"/></mask><g mask="url(#A)"><path fill-rule="evenodd" d="M30.885 7.549l.529.017c2.082 0 4.345-.661 5.65-1.041 4.824.727 9.35 1.817 13.679 5.171 3.205 2.478 5.931 4.923 8.244 6.658l-5.997 9.483c-1.536-1.123-2.065-.314-5.386-2.99-.314-.182-.446.809-.496 1.437-.182 2.082-.38 5.072-.396 7.021l-.149 7.897c-.017 1.355.017 3.156.149 5.601.099 1.685.016 4.89-.149 5.898.017.149 0 .281-.281.363-.198.066-.396.083-.611.149-.529.182-1.041.364-1.586.512-2.61.875-4.708 1.487-6.873 1.999-.875.198-1.801.446-2.726.595-.942.149-1.9.347-2.941.479-.876.099-1.817.149-2.841.149-2.015-.05-3.403-.364-5.32-1.008-1.008-.347-2.016-.743-3.007-1.123-.991-.363-1.982-.743-3.007-1.041-.496-.149-.991-.248-1.503-.363l-.347-.083c-.215-.033-.281-.066-.314-.215-.231-1.057-.297-4.642-.198-6.311.149-2.445.182-4.246.149-5.601l-.149-7.897c-.017-1.95-.215-4.94-.396-7.021-.05-.628-.182-1.619-.496-1.437-3.337 2.693-3.849 1.85-5.386 2.974L2.768 18.32c2.313-1.735 5.039-4.147 8.244-6.641 4.328-3.354 8.855-4.444 13.662-5.171 1.322.38 3.585 1.041 5.666 1.041h.545z" fill="#106e7a"/><path d="M30.366 23.239a.6.6 0 0 0-.601.601v3.923h-3.923a.6.6 0 0 0-.601.601v1.06a.6.6 0 0 0 .601.601h3.923v3.923a.6.6 0 0 0 .601.601h1.06a.6.6 0 0 0 .601-.601v-3.923h3.923a.6.6 0 0 0 .601-.601v-1.06a.6.6 0 0 0-.601-.601h-3.923V23.84a.6.6 0 0 0-.601-.601h-1.06z" fill="#fff" fill-opacity=".5"/></g></g><defs><clipPath id="B"><path fill="#fff" d="M0 0h61.308v56.5H0z"/></clipPath></defs></svg>